<svg xmlns="http://www.w3.org/2000/svg" viewBox="0 0 841.9 595.3">

    <symbol id='icon-telegram' viewBox="0 0 20 20">
        <path d="M1.2249 8.96853C1.2249 8.96853 10.0712 5.45587 13.1399 4.2177C14.3149 3.72415 18.3024 2.14136 18.3024 2.14136C18.3024 2.14136 20.1437 1.44843 19.9899 3.13091C19.9399 3.82261 19.5312 6.24726 19.1212 8.86884C18.5087 12.5797 17.8437 16.6351 17.8437 16.6351C17.8437 16.6351 17.7412 17.7736 16.8724 17.9717C16.0024 18.1687 14.5712 17.2788 14.3149 17.0807C14.1112 16.933 10.4812 14.7065 9.1524 13.6184C8.79365 13.3218 8.38365 12.7274 9.2024 12.0357C11.0437 10.4024 13.2412 8.37406 14.5712 7.08789C15.1837 6.49465 15.7987 5.10879 13.2412 6.79127C9.61115 9.21592 6.0324 11.4904 6.0324 11.4904C6.0324 11.4904 5.21365 11.9852 3.6799 11.5396C2.14615 11.0953 0.357404 10.5033 0.357404 10.5033C0.357404 10.5033 -0.870096 9.76116 1.22615 8.96977L1.2249 8.96853Z"/>
    </symbol>

    <symbol id='icon-linkedin' viewBox="0 0 20 20">
        <path d="m 7.22171,18 h 3.85859 v -6.7824 c 0,-0.363 0.025,-0.7256 0.1269,-0.9851 0.279,-0.72522 0.9139,-1.47635 1.9798,-1.47635 1.3962,0 1.9548,1.11375 1.9548,2.74645 V 18 H 19 v -6.9639 c 0,-3.73044 -1.9036,-5.46629 -4.4423,-5.46629 -2.0816,0 -2.9954,1.21725 -3.5031,2.04636 h 0.0258 V 5.85481 H 7.22181 C 7.27245,6.99443 7.22171,18 7.22171,18 Z M 5.08668,18 V 5.85481 H 1.2281 V 18 Z M 3.15737,4.19659 c 1.34557,0 2.18307,-0.93262 2.18307,-2.09812 C 5.31536,0.906738 4.50294,0 3.1829,0 1.86299,0 1,0.906738 1,2.09847 1,3.26397 1.83732,4.19659 3.13222,4.19659 Z"/>
    </symbol>

    <symbol id='icon-viber' viewBox="0 0 20 20">
        <path d="M11.0653 2.45429C11.0076 2.44639 10.9391 2.44113 10.8652 2.43586C10.5624 2.4148 9.93241 2.37004 9.96936 1.73548C9.98558 1.46077 10.1118 1 10.7769 1C10.8506 1 10.9228 1.00489 10.9859 1.00917L10.9932 1.00965C10.998 1.00996 11.0028 1.01028 11.0076 1.01058C11.057 1.01376 11.1023 1.01668 11.141 1.01668C11.1575 1.01694 11.1741 1.01606 11.1905 1.01404C11.2067 1.01141 11.223 1.01141 11.241 1.01141C15.4191 1.14833 19.0403 4.84242 18.988 8.91479C18.988 8.96625 18.9903 9.0238 18.9928 9.08532L18.9934 9.0991C19.0069 9.36942 19.0213 9.70556 18.7996 9.93112C18.6716 10.061 18.4941 10.1268 18.2697 10.1268H18.2481C17.5347 10.1137 17.5235 9.46673 17.5181 9.15495C17.5172 9.06806 17.5154 8.985 17.5064 8.91742C16.99 4.93457 15.1235 3.06251 11.0653 2.45429Z M17.0521 13.8683C17.1375 13.9349 17.2237 14.0005 17.3108 14.0649C17.9633 14.5503 18.7762 15.155 18.331 16.3785C17.8236 17.7748 16.1698 19 14.7927 19H14.7693C14.7447 18.9999 14.7201 18.9966 14.6963 18.9904C14.6531 18.979 14.5936 18.9658 14.5251 18.9509C14.3223 18.907 14.0456 18.8464 13.7816 18.7359C10.8544 17.508 8.32731 15.8747 6.27161 13.8797C4.17084 11.8418 2.50536 9.37205 1.32024 6.53982C0.911082 5.56035 0.893057 4.61861 1.27157 3.81643C1.66361 2.98703 2.44588 2.35863 3.53727 2.00142C3.94419 1.85943 4.38931 1.86067 4.79539 2.00493C5.74529 2.34458 7.99927 5.3383 8.05514 6.3327C8.10291 7.20948 7.41166 7.66675 7.03945 7.91249C6.38516 8.34606 6.2644 8.87792 6.6366 9.6924C7.40626 11.3766 8.7527 12.6528 10.6363 13.4848C10.8347 13.5797 11.0516 13.6326 11.2725 13.6401C11.5907 13.6401 11.8493 13.4874 12.062 13.1732C12.5433 12.4649 13.1255 12.1051 13.7942 12.1051C14.2899 12.1051 14.8144 12.2991 15.3984 12.6984L15.7214 12.9181C16.1643 13.2196 16.6214 13.5307 17.0521 13.8683Z M10.5759 6.17559C10.748 5.68937 11.2392 5.67708 11.4744 5.67181C12.0999 5.65689 12.7866 5.97461 13.3562 6.53807C13.9249 7.09977 14.2583 7.80542 14.2511 8.4268C14.2709 9.02274 14.0483 9.35186 13.5887 9.40452C13.56 9.40799 13.5311 9.40975 13.5022 9.40979C13.121 9.40979 12.8227 9.10875 12.7785 8.67869C12.6839 7.75451 12.2089 7.25775 11.2852 7.11382C11.031 7.07344 10.7507 6.99972 10.6047 6.76275C10.5047 6.60038 10.4948 6.40379 10.5759 6.17559Z M11.6221 3.36701C14.3718 3.68912 16.5915 6.01581 16.5699 8.55401L16.569 8.55314C16.5692 8.56487 16.5686 8.5766 16.5672 8.58824C16.5601 8.63395 16.5626 8.7017 16.5652 8.77399L16.5654 8.77782C16.5744 9.03857 16.5931 9.58091 15.9841 9.67128C15.9228 9.68006 15.8633 9.68445 15.8092 9.68445C15.1555 9.68445 15.1181 9.09374 15.1001 8.80778L15.1 8.8059C15.0995 8.79942 15.099 8.79297 15.0986 8.78655C15.0937 8.71743 15.0892 8.65266 15.0801 8.59965C14.6737 6.21328 13.8418 5.36809 11.3707 4.83008C11.3137 4.81783 11.2465 4.80863 11.1757 4.79892L11.1598 4.79673C10.8957 4.76162 10.5668 4.71774 10.3802 4.47112C10.2694 4.32455 10.2324 4.13585 10.2712 3.91204C10.3108 3.68297 10.4613 3.2968 11.0255 3.2968C11.1662 3.30024 11.3063 3.31492 11.4446 3.34068C11.5076 3.35122 11.5671 3.36087 11.6221 3.36701Z"/>
    </symbol>

    <symbol id='icon-twitter' viewBox="0 0 20 20">
        <path d="M18 5.148c-.328.092-.666.149-.999.221l-.017-.049a3.791 3.791 0 0 0 1.533-2.024c-.062.03-.093.042-.121.058a7.65 7.65 0 0 1-2.095.815c-.108.024-.167-.01-.24-.075-.181-.16-.359-.33-.558-.463-1.374-.92-3.154-.832-4.409.247-.936.805-1.386 1.85-1.327 3.109.01.214.042.428.066.668-3.095-.215-5.626-1.542-7.637-3.95a3.82 3.82 0 0 0-.405 2.724c.205.958.726 1.712 1.493 2.311a4.718 4.718 0 0 1-.829-.137c-.264-.075-.517-.192-.786-.295.002.896.27 1.686.81 2.38s1.245 1.127 2.085 1.363a5.42 5.42 0 0 1-.788.11c-.26.016-.521.004-.8.004.607 1.57 1.736 2.431 3.434 2.585C4.79 16.003 2.992 16.5 1 16.327c.192.131.374.263.574.357.536.252 1.07.512 1.621.725.847.326 1.73.5 2.633.561 1.209.083 2.403-.004 3.58-.315a10.058 10.058 0 0 0 2.33-.931c.521-.29 1.01-.626 1.474-1.004a8.86 8.86 0 0 0 1.516-1.549c.378-.506.729-1.036 1.05-1.581.459-.778.78-1.622 1.018-2.495.289-1.056.42-2.136.387-3.235-.002-.068.049-.156.101-.205.246-.227.507-.435.75-.666A6.66 6.66 0 0 0 19 4.81c-.346.118-.669.246-1 .339z"/>
    </symbol>

    <symbol id='icon-odnoklasniki' viewBox="0 0 20 20">
        <path d="m10,10.12277c-1.39655,0 -2.58881,-0.49478 -3.57681,-1.48438c-0.98798,-0.98959 -1.48196,-2.18005 -1.48196,-3.57144c0,-1.3988 0.49399,-2.59299 1.48196,-3.58258c0.98801,-0.98959 2.18027,-1.48438 3.57681,-1.48438c1.39655,0 2.58881,0.49478 3.57681,1.48438c0.98798,0.98959 1.48196,2.18378 1.48196,3.58258c0,1.39139 -0.49399,2.58185 -1.48196,3.57144c-0.98801,0.98959 -2.18027,1.48438 -3.57681,1.48438zm0,-7.55582c-0.68341,0 -1.2684,0.24368 -1.75497,0.73105c-0.48657,0.48734 -0.72986,1.077 -0.72986,1.76895c0,0.68454 0.24329,1.27048 0.72986,1.75781c0.48657,0.48737 1.07156,0.73102 1.75497,0.73102c0.68341,0 1.2684,-0.24365 1.75497,-0.73102c0.48657,-0.48734 0.72986,-1.07327 0.72986,-1.75781c0,-0.69196 -0.24329,-1.28162 -0.72986,-1.76895c-0.48657,-0.48737 -1.07156,-0.73105 -1.75497,-0.73105zm5.82761,8.16965c0.09659,0.2009 0.15228,0.38504 0.16714,0.55246c0.01486,0.16742 -0.00186,0.31808 -0.05014,0.452c-0.04828,0.13394 -0.1467,0.27716 -0.29529,0.42969c-0.14856,0.15256 -0.30643,0.29019 -0.47354,0.41296c-0.16714,0.12277 -0.39557,0.27716 -0.68527,0.46317c-0.85428,0.54315 -2.02426,0.89285 -3.50995,1.0491l0.81342,0.80356l2.9751,2.97992c0.22284,0.23065 0.33426,0.50595 0.33426,0.8259c0,0.31995 -0.11142,0.59152 -0.33426,0.81473l-0.13373,0.14511c-0.23029,0.22321 -0.50513,0.33481 -0.82455,0.33481c-0.31943,0 -0.59427,-0.1116 -0.82455,-0.33481c-0.49771,-0.50598 -1.48941,-1.50299 -2.9751,-2.99109l-2.9751,2.99109c-0.23029,0.22321 -0.50513,0.33481 -0.82455,0.33481c-0.31943,0 -0.59055,-0.1116 -0.81342,-0.33481l-0.1337,-0.14511c-0.23029,-0.22321 -0.34543,-0.49478 -0.34543,-0.81473c0,-0.31995 0.11514,-0.59525 0.34543,-0.8259l3.77734,-3.78348c-1.50797,-0.15625 -2.68536,-0.50595 -3.53223,-1.0491c-0.2897,-0.186 -0.51813,-0.34039 -0.68527,-0.46317c-0.16711,-0.12277 -0.32498,-0.26041 -0.47354,-0.41296c-0.14859,-0.15253 -0.24701,-0.29575 -0.29529,-0.42969c-0.04828,-0.13391 -0.065,-0.28458 -0.05014,-0.452c0.01486,-0.16742 0.07056,-0.35156 0.16714,-0.55246c0.07428,-0.1488 0.17828,-0.27902 0.31198,-0.39063c0.13373,-0.1116 0.2897,-0.19345 0.46799,-0.24551c0.17828,-0.05209 0.38629,-0.04468 0.62399,0.02231c0.2377,0.06696 0.47913,0.19717 0.72427,0.39063c0.03714,0.02975 0.09286,0.07068 0.16714,0.12277c0.07428,0.05206 0.23401,0.14322 0.47913,0.27344c0.24515,0.13019 0.50143,0.24365 0.76886,0.34039c0.26743,0.09674 0.60913,0.186 1.02512,0.26785c0.41599,0.08185 0.83569,0.12277 1.25912,0.12277c0.67599,0 1.32227,-0.09488 1.93881,-0.28461c0.61658,-0.18973 1.06229,-0.37759 1.33713,-0.5636l0.42343,-0.27902c0.24515,-0.19345 0.48657,-0.32367 0.72427,-0.39063c0.2377,-0.06699 0.44571,-0.0744 0.62399,-0.02231c0.17828,0.05206 0.33426,0.13391 0.46799,0.24551c0.1337,0.1116 0.2377,0.24182 0.31198,0.39063l0.00002,0.00001z"/>
    </symbol>

    <symbol id='icon-vkontakte' viewBox="0 0 20 20">
        <path d="M11.0164 16.5C4.25986 16.5 0.159415 11.8038 0 4H3.42203C3.52871 9.73247 6.13209 12.1652 8.12777 12.6611V4H11.4084V8.94597C13.3333 8.73223 15.347 6.48199 16.0254 4H19.2509C18.7343 7.05355 16.542 9.3038 14.991 10.232C16.542 10.9825 19.0375 12.9469 20 16.5H16.4533C15.7042 14.1249 13.8679 12.2853 11.4084 12.0355V16.5H11.0164Z"
              fill="#fff"/>
    </symbol>

    <symbol id='icon-mute' viewBox="0 0 48 48">
        <path d="M41.75,44.19A0.5,0.5,0,0,1,41.38,44L5.89,6.26a0.5,0.5,0,1,1,.73-0.68L42.11,43.35A0.5,0.5,0,0,1,41.75,44.19Z"></path>
        <path d="M33.89,29.51a0.5,0.5,0,0,1-.5-0.5V3.12a1.5,1.5,0,0,0-2.6-1L21,12.76a0.5,0.5,0,1,1-.73-0.68L30.05,1.43a2.5,2.5,0,0,1,4.34,1.69V29A0.5,0.5,0,0,1,33.89,29.51Z"></path>
        <path d="M31.87,47.39a2.45,2.45,0,0,1-1.82-.81L16.16,31.5H14.89a7.5,7.5,0,0,1-7.5-7.73,7.71,7.71,0,0,1,7.79-7.27h1.19a0.5,0.5,0,0,1,0,1H15.18a6.7,6.7,0,0,0-6.79,6.3,6.5,6.5,0,0,0,6.5,6.7h1.49a0.5,0.5,0,0,1,.37.16l14,15.23a1.5,1.5,0,0,0,2.6-1V35.33a0.5,0.5,0,0,1,1,0v9.55a2.45,2.45,0,0,1-1.59,2.33A2.56,2.56,0,0,1,31.87,47.39Z"></path>
    </symbol>

    <symbol id='icon-devices' viewBox="0 0 396 396">
        <path d="M390,190.762h-47.635v-48.824c0-4.142-3.357-7.5-7.5-7.5h-16.932V46.346c0-5.523-4.478-10-10-10H10c-5.523,0-10,4.477-10,10 v191.182c0,5.523,4.477,10,10,10h103.467c-1.99,11.434-6.269,30.326-14.881,49.079c-1.422,3.096-1.169,6.703,0.67,9.571 c1.839,2.868,5.011,4.603,8.418,4.603h70.528v26.272c0,4.142,3.357,7.5,7.5,7.5h107.975v9.101c0,3.313,2.687,6,6,6H390 c3.314,0,6-2.687,6-6V196.762C396,193.448,393.314,190.762,390,190.762z M178.202,141.938v85.591H20V56.346h277.934v78.091H185.702 C181.56,134.438,178.202,137.795,178.202,141.938z M293.677,329.553H193.202v-8.709h59.583v0.704c0,4.143,3.357,7.5,7.5,7.5 c4.143,0,7.5-3.357,7.5-7.5v-0.704h25.892V329.553z M293.677,196.762v109.082H193.202V149.438h134.163v41.324h-27.688 C296.363,190.762,293.677,193.448,293.677,196.762z M384,347.654h-78.323v-7.065h33.162v0.597c0,3.314,2.686,6,6,6 c3.313,0,6-2.686,6-6v-0.597H384V347.654z M384,328.588h-78.323V221.827H384V328.588z M384,209.827h-78.323v-7.065H384V209.827z"/>
    </symbol>

    <symbol id='icon-smartTV' viewBox="0 0 24 24" fill="none">
        <path d="M7 21L17 21" strokeWidth="1.5" strokeLinecap="round" strokeLinejoin="round"/>
        <path d="M2 16.4V3.6C2 3.26863 2.26863 3 2.6 3H21.4C21.7314 3 22 3.26863 22 3.6V16.4C22 16.7314 21.7314 17 21.4 17H2.6C2.26863 17 2 16.7314 2 16.4Z"
              stroke="#ffffff" strokeWidth="1.5"/>
    </symbol>

    <symbol id='icon-google' viewBox="0 0 20 20">
        <path d="M15.3099 12.7188L14.0282 11.386L9.78055 15.9436L15.3099 12.7188Z M16.958 11.7576L17.0071 11.729C18.3303 10.9572 18.3303 9.04538 17.0071 8.27366L16.9564 8.2441L15.3199 10L16.958 11.7576Z M15.3082 7.28288L9.78589 4.06215L14.0282 8.61402L15.3082 7.28288Z M4.04121 1.00037L12.6954 10L4.03865 19.0023C2.98068 19.0214 2 18.1809 2 16.9996V3.00301C2 1.82076 2.98226 0.979819 4.04121 1.00037Z"
              fill="#fff"/>
    </symbol>

    <symbol id='icon-apple' viewBox="0 0 20 20">
        <path fill="#fff"
              d="M18.472 6.564c-1.491 1.071-2.237 2.36-2.237 3.867 0 1.805.922 3.19 2.765 4.155-.495 1.454-1.211 2.72-2.15 3.798C15.914 19.46 15.057 20 14.282 20c-.365 0-.863-.122-1.495-.367l-.303-.119c-.618-.244-1.166-.367-1.641-.367-.45 0-.941.096-1.475.288l-.381.139-.48.198c-.377.152-.758.228-1.142.228-.906 0-1.905-.757-3-2.27C2.788 15.56 2 13.197 2 10.64c0-1.818.492-3.283 1.475-4.393.984-1.11 2.286-1.666 3.908-1.666.606 0 1.173.112 1.7.337l.362.149.38.159c.34.145.613.218.822.218.267 0 .563-.063.889-.189l.498-.198.371-.139c.593-.218 1.247-.327 1.964-.327 1.7 0 3.068.658 4.103 1.973zM14.447 0c.02.231.03.41.03.535 0 1.144-.41 2.147-1.232 3.01-.82.863-1.774 1.294-2.862 1.294-.033-.258-.05-.443-.05-.555 0-.972.382-1.884 1.144-2.737C12.239.694 13.122.195 14.125.05c.071-.014.179-.03.322-.05z"/>
    </symbol>

    <symbol id='icon-mail' viewBox="0 0 24 24">
        <polyline fill="none" points="4 8.2 12 14.1 20 8.2" strokeLinecap="round" strokeLinejoin="round"/>
        <rect fill="none" height="14" rx="2" ry="2" strokeLinecap="round" strokeLinejoin="round" width="18" x="3"
              y="6.5"/>
    </symbol>

    <symbol id='icon-phone' viewBox="0 0 24 24" fill="none">
        <path d="M18.4 20.75H18.17C15.5788 20.4681 13.0893 19.5846 10.9 18.17C8.86618 16.8747 7.13938 15.1513 5.84 13.12C4.42216 10.925 3.53852 8.42823 3.26 5.83001C3.22816 5.52011 3.2596 5.20696 3.35243 4.90958C3.44525 4.6122 3.59752 4.33677 3.8 4.10001C3.99694 3.86008 4.24002 3.66211 4.51486 3.51782C4.78969 3.37354 5.09068 3.28587 5.4 3.26001H8C8.56312 3.26058 9.10747 3.46248 9.53476 3.82925C9.96205 4.19602 10.2441 4.70349 10.33 5.26001C10.425 5.97489 10.6028 6.67628 10.86 7.35001C11.0164 7.77339 11.0487 8.23264 10.9531 8.67375C10.8574 9.11485 10.6378 9.51947 10.32 9.84001L9.71 10.45C10.6704 11.9662 11.9587 13.2477 13.48 14.2L14.09 13.6C14.4105 13.2822 14.8152 13.0626 15.2563 12.9669C15.6974 12.8713 16.1566 12.9036 16.58 13.06C17.2545 13.3148 17.9556 13.4926 18.67 13.59C19.236 13.6751 19.7515 13.9638 20.1198 14.402C20.488 14.8403 20.6837 15.3978 20.67 15.97V18.37C20.67 18.9942 20.4227 19.593 19.9823 20.0353C19.5419 20.4776 18.9442 20.7274 18.32 20.73L18.4 20.75ZM8 4.75001H5.61C5.49265 4.75777 5.37809 4.78924 5.27325 4.84252C5.1684 4.8958 5.07545 4.96979 5 5.06001C4.92658 5.14452 4.871 5.24302 4.83663 5.34957C4.80226 5.45612 4.7898 5.56852 4.8 5.68001C5.04249 8.03679 5.83362 10.304 7.11 12.3C8.28664 14.1467 9.85332 15.7134 11.7 16.89C13.6973 18.1798 15.967 18.9878 18.33 19.25C18.4529 19.2569 18.5759 19.2383 18.6912 19.1953C18.8065 19.1522 18.9117 19.0857 19 19C19.1592 18.8368 19.2489 18.6181 19.25 18.39V16C19.2545 15.7896 19.1817 15.5848 19.0453 15.4244C18.9089 15.2641 18.7184 15.1593 18.51 15.13C17.6839 15.0189 16.8724 14.8177 16.09 14.53C15.9359 14.4724 15.7686 14.4596 15.6075 14.4933C15.4464 14.5269 15.2982 14.6055 15.18 14.72L14.18 15.72C14.0629 15.8342 13.912 15.9076 13.7499 15.9292C13.5877 15.9508 13.423 15.9195 13.28 15.84C11.1462 14.6342 9.37997 12.8715 8.17 10.74C8.08718 10.598 8.05402 10.4324 8.07575 10.2694C8.09748 10.1065 8.17286 9.95538 8.29 9.84001L9.29 8.84001C9.40468 8.72403 9.48357 8.57751 9.51726 8.41793C9.55095 8.25835 9.53802 8.09244 9.48 7.94001C9.19119 7.15799 8.98997 6.34637 8.88 5.52001C8.85519 5.30528 8.75133 5.10747 8.58865 4.96513C8.42597 4.82278 8.21613 4.7461 8 4.75001Z"
              fill="#ffffff"/>
    </symbol>

    <symbol id='icon-search' viewBox="0 0 24 24" fill="none">
        <path d="M20 20L15.8033 15.8033M18 10.5C18 6.35786 14.6421 3 10.5 3C6.35786 3 3 6.35786 3 10.5C3 14.6421 6.35786 18 10.5 18C14.6421 18 18 14.6421 18 10.5Z"></path>
    </symbol>

    <symbol id="icon-notification" viewBox="0 0 512.001 512.001">
        <path d="M504.45,365.901c-60.22-60.237-69.282-90.462-69.282-186.701c0-98.97-80.213-179.2-179.166-179.2 S76.836,80.231,76.836,179.2c0,51.891-1.382,71.262-8.525,95.044c-8.883,29.628-27.119,57.993-60.766,91.657 C-8.574,382.029,2.844,409.6,25.645,409.6h142.054l-1.289,12.8c0,49.485,40.107,89.6,89.583,89.6 c49.476,0,89.583-40.115,89.583-89.6l-1.289-12.8h142.063C509.16,409.6,520.578,382.029,504.45,365.901z M256.01,486.4 c-35.337,0-63.991-28.663-63.991-64l1.289-12.8h125.389l1.306,12.8C320.002,457.737,291.347,486.4,256.01,486.4z M25.653,384 c76.783-76.8,76.783-128,76.783-204.8c0-84.821,68.753-153.6,153.566-153.6s153.566,68.779,153.574,153.6 c0,76.8,0,128,76.783,204.8H25.653z"></path>
    </symbol>

    <symbol id='icon-person' viewBox="0 0 64 64" fill="none">
        <circle cx="32" cy="18.14" r="11.14"></circle>
        <path d="M54.55,56.85A22.55,22.55,0,0,0,32,34.3h0A22.55,22.55,0,0,0,9.45,56.85Z"></path>
    </symbol>

    <symbol id='icon-grade-star' viewBox="0 0 20.8 20.8" fill="white">
        <path d="M2.866 14.85c-.078.444.36.791.746.593l4.39-2.256 4.389 2.256c.386.198.824-.149.746-.592l-.83-4.73 3.522-3.356c.33-.314.16-.888-.282-.95l-4.898-.696L8.465.792a.513.513 0 0 0-.927 0L5.354 5.12l-4.898.696c-.441.062-.612.636-.283.95l3.523 3.356-.83 4.73zm4.905-2.767-3.686 1.894.694-3.957a.565.565 0 0 0-.163-.505L1.71 6.745l4.052-.576a.525.525 0 0 0 .393-.288L8 2.223l1.847 3.658a.525.525 0 0 0 .393.288l4.052.575-2.906 2.77a.565.565 0 0 0-.163.506l.694 3.957-3.686-1.894a.503.503 0 0 0-.461 0z"/>
    </symbol>

    <symbol id='icon-bookmark' viewBox="0 0 20.8 20.8" fill="white">
        <path d="M2 2a2 2 0 0 1 2-2h8a2 2 0 0 1 2 2v13.5a.5.5 0 0 1-.777.416L8 13.101l-5.223 2.815A.5.5 0 0 1 2 15.5V2zm2-1a1 1 0 0 0-1 1v12.566l4.723-2.482a.5.5 0 0 1 .554 0L13 14.566V2a1 1 0 0 0-1-1H4z"/>
    </symbol>

    <symbol id='icon-bookmark-true' viewBox="0 0 20.8 20.8" fill="white">
        <path d="M2 2v13.5a.5.5 0 0 0 .74.439L8 13.069l5.26 2.87A.5.5 0 0 0 14 15.5V2a2 2 0 0 0-2-2H4a2 2 0 0 0-2 2z"/>
    </symbol>

    <symbol id='icon-cross' viewBox="0 0 22 22">
            <path d="M19 5L5 19M5.00001 5L19 19" strokeLinecap="round" strokeLinejoin="round"></path>
    </symbol>

    <symbol id='icon-check' width="16" height="16" fill="white" stroke='white'>
        <path d="M12.736 3.97a.733.733 0 0 1 1.047 0c.286.289.29.756.01 1.05L7.88 12.01a.733.733 0 0 1-1.065.02L3.217 8.384a.757.757 0 0 1 0-1.06.733.733 0 0 1 1.047 0l3.052 3.093 5.4-6.425a.247.247 0 0 1 .02-.022Z"/>
    </symbol>

    <symbol id='icon-back' viewBox="0 0 30 30" fill="white" stroke='white'>
        <path d="M9.224 1.553a.5.5 0 0 1 .223.67L6.56 8l2.888 5.776a.5.5 0 1 1-.894.448l-3-6a.5.5 0 0 1 0-.448l3-6a.5.5 0 0 1 .67-.223z"/>
    </symbol>

    <symbol id='icon-circle' viewBox="0 0 24 24">
        <circle cx="12" cy="12" fill="none" id="Circle-2" r="10" stroke="#ffffff" strokeLinecap="round" strokeLinejoin="round" stroke-width="3"></circle>
    </symbol>

    <symbol id='icon-circle-checked' viewBox="0 0 24 24">
        <circle cx="12" cy="12" fill="none" id="Circle-2" r="10" stroke="#ffffff" strokeLinecap="round" strokeLinejoin="round" stroke-width="3"></circle>
        <circle cx="12" cy="12" fill="none" id="Circle-3" r="3.5" stroke="#ffffff" strokeLinecap="round" strokeLinejoin="round" stroke-width="2"></circle>
    </symbol>


    <symbol id='icon-movie' viewBox="0 0 32 32"> 
        <path d="M29.5,14.1c-0.3-0.2-0.7-0.2-1,0l-4.6,2.3C23.7,15,22.5,14,21,14H7c-1.7,0-3,1.3-3,3v6c0,1.7,1.3,3,3,3h5.1l-3,4.4 c-0.3,0.5-0.2,1.1,0.3,1.4c0.5,0.3,1.1,0.2,1.4-0.3l3.2-4.8l3.2,4.8c0.2,0.3,0.5,0.4,0.8,0.4c0.2,0,0.4-0.1,0.6-0.2 c0.5-0.3,0.6-0.9,0.3-1.4l-3-4.4H21c1.5,0,2.7-1,2.9-2.4l4.6,2.3C28.7,26,28.8,26,29,26c0.2,0,0.4-0.1,0.5-0.1 c0.3-0.2,0.5-0.5,0.5-0.9V15C30,14.7,29.8,14.3,29.5,14.1z"></path> 
        <path d="M19,1c-2.1,0-3.9,1.1-5,2.7C12.9,2.1,11.1,1,9,1C5.7,1,3,3.7,3,7s2.7,6,6,6c2.1,0,3.9-1.1,5-2.7c1.1,1.6,2.9,2.7,5,2.7 c3.3,0,6-2.7,6-6S22.3,1,19,1z M9,9C7.9,9,7,8.1,7,7s0.9-2,2-2s2,0.9,2,2S10.1,9,9,9z M19,9c-1.1,0-2-0.9-2-2s0.9-2,2-2s2,0.9,2,2 S20.1,9,19,9z"></path> 
    </symbol>

    <symbol id='icon-folder-plus' viewBox="0 0 24 24">
        <path d="M8.75003 13.5C8.75003 13.0858 9.08582 12.75 9.50003 12.75H11.25V11C11.25 10.5858 11.5858 10.25 12 10.25C12.4142 10.25 12.75 10.5858 12.75 11V12.75H14.5C14.9142 12.75 15.25 13.0858 15.25 13.5C15.25 13.9142 14.9142 14.25 14.5 14.25H12.75V16C12.75 16.4142 12.4142 16.75 12 16.75C11.5858 16.75 11.25 16.4142 11.25 16V14.25H9.50003C9.08582 14.25 8.75003 13.9142 8.75003 13.5Z"></path>
        <path fillRule="evenodd" clipRule="evenodd" d="M21.1613 9.74679C21.5581 12.233 21.5297 14.7686 21.0772 17.2453C20.8748 18.353 19.9484 19.1833 18.8253 19.2636L17.1874 19.3808C13.7336 19.6279 10.2665 19.6279 6.81264 19.3808L5.29864 19.2725C4.10261 19.1869 3.1161 18.3027 2.90058 17.1232C2.46392 14.7333 2.38916 12.2913 2.67882 9.87915L2.9513 7.61004C3.11301 6.26343 4.25541 5.25 5.6117 5.25H7.90327C9.02102 5.25 9.95229 6.04846 10.1578 7.10612L18.4722 7.10612C19.7786 7.10612 20.8913 8.05533 21.0972 9.34535L21.1613 9.74679ZM19.6016 16.9757C20.0236 14.6662 20.0501 12.3017 19.6801 9.98322L19.616 9.58178C19.5263 9.0197 19.0414 8.60612 18.4722 8.60612H9.75939C9.17432 8.60612 8.70003 8.13183 8.70003 7.54677C8.70003 7.10672 8.34331 6.75 7.90327 6.75H5.6117C5.01467 6.75 4.51179 7.19611 4.4406 7.78888L4.16812 10.058C3.89639 12.3208 3.96652 14.6116 4.37615 16.8536C4.46868 17.36 4.8922 17.7396 5.40568 17.7763L6.91968 17.8846C10.3023 18.1266 13.6978 18.1266 17.0804 17.8846L18.7183 17.7674C19.1588 17.7359 19.5222 17.4102 19.6016 16.9757Z"> </path> 
    </symbol>

    <symbol id='icon-download' viewBox="0 0 24 24"> 
        <path d="M3,12.3v7a2,2,0,0,0,2,2H19a2,2,0,0,0,2-2v-7" fill="none" strokeLinecap="round" strokeLinejoin="round"></path>
        <polyline data-name="Right" fill="none" points="7.9 12.3 12 16.3 16.1 12.3" strokeLinecap="round" strokeLinejoin="round"></polyline>
        <line fill="none" strokeLinecap="round" strokeLinejoin="round" x1="12" x2="12" y1="2.7" y2="14.2"></line> 
    </symbol>

    <symbol id='icon-ring' viewBox="0 0 24 24">
        <path d="M5,15.5c-0.6,0.5-1,1.2-1,2C4,18.9,5.1,20,6.5,20h2.7c0.4,1.2,1.5,2,2.8,2s2.4-0.8,2.8-2h2.7c1.4,0,2.5-1.1,2.5-2.5 c0-0.8-0.4-1.5-1-2V10c0-1.9-0.7-3.6-2.1-4.9c-0.4-0.4-0.9-0.8-1.4-1.1c-2.1-1.2-4.9-1.2-7,0C6.3,5.2,5,7.5,5,10V15.5z M17.5,18H14 h-4H6.5C6.2,18,6,17.8,6,17.5S6.2,17,6.5,17h11c0.3,0,0.5,0.2,0.5,0.5S17.8,18,17.5,18z M7,10c0-1.8,1-3.4,2.5-4.3 c1.5-0.9,3.5-0.9,5,0c0.4,0.2,0.7,0.5,1,0.8C16.5,7.4,17,8.7,17,10v5H7V10z"></path> <path d="M18.5,4.4c0.3,0.3,0.6,0.6,0.8,1c0.2,0.4,0.4,0.8,0.5,1.2c0.1,0.4,0.5,0.7,1,0.7c0.1,0,0.2,0,0.3,0 c0.5-0.1,0.9-0.7,0.7-1.2c-0.2-0.6-0.4-1.2-0.7-1.7c-0.3-0.5-0.7-1-1.1-1.4c-0.3-0.3-0.6-0.6-1-0.8c-0.5-0.3-1.1-0.2-1.4,0.3 c-0.3,0.5-0.2,1.1,0.3,1.4C18.1,4,18.3,4.2,18.5,4.4z"></path> <path d="M2.9,6.9C3,7,3.1,7,3.2,7C3.6,7,4,6.7,4.1,6.3c0.1-0.4,0.3-0.8,0.6-1.1C5,4.8,5.2,4.5,5.6,4.3C5.8,4.1,6,3.9,6.3,3.8 c0.5-0.3,0.7-0.9,0.4-1.4C6.4,1.9,5.8,1.8,5.3,2c-0.4,0.2-0.8,0.5-1,0.7C3.8,3.1,3.4,3.6,3.1,4.1c-0.3,0.5-0.6,1-0.8,1.6 C2.1,6.2,2.3,6.8,2.9,6.9z"></path>
    </symbol>

    <symbol id='icon-history' viewBox="0 0 32 32"> 
        <path d="M16,17a1,1,0,0,0,1-1V6.45a1,1,0,1,0-2,0V15H11.91a1,1,0,0,0,0,2Z"></path> <path d="M16,0A16.06,16.06,0,0,0,2,8.27V6.45a1,1,0,0,0-2,0v5.46a1,1,0,0,0,1,1H6.45a1,1,0,0,0,0-2H3A14,14,0,1,1,2,16a1,1,0,0,0-2,0A16,16,0,1,0,16,0Z"></path>
    </symbol>

    <symbol id='icon-brilliant' viewBox="0 0 16 16">
        <path d="M0 5.04V4l4-4h8l4 4v1.04L8 16 0 5.04zM2 5l6 8.5L4 5H2zm12 0h-2l-4 8.5L14 5zM6 5l2 6 2-6H6zM4 2L2 4h2l2-2H4zm8 0h-2l2 2h2l-2-2zM7 2L6 4h4L9 2H7z" fillRule="evenodd"></path>
    </symbol>

    <symbol id='icon-circle-flooded' viewBox="0 0 32 32">
        <circle cx="16" cy="16" r="16"></circle>
    </symbol>

    <symbol id='icon-medal' viewBox="-4 -1 24 24">
        <path d="M4 14.517l-.612-1.258a1 1 0 0 0-.43-.447l-2-1.06a1 1 0 0 1-.485-1.181l.71-2.273a1 1 0 0 0 0-.596l-.71-2.273a1 1 0 0 1 .486-1.182l1.999-1.06a1 1 0 0 0 .43-.446L4.393.674A1 1 0 0 1 5.615.165l2.062.703a1 1 0 0 0 .646 0l2.062-.703a1 1 0 0 1 1.222.51l1.005 2.066a1 1 0 0 0 .43.447l2 1.06a1 1 0 0 1 .485 1.181l-.71 2.273a1 1 0 0 0 0 .596l.71 2.273a1 1 0 0 1-.486 1.182l-1.999 1.06a1 1 0 0 0-.43.446L12 14.517v6.879l-4-1.358-4 1.358v-6.88zm2 1.187v2.9l2-.679 2 .68v-2.901l-1.677-.572a1 1 0 0 0-.646 0L6 15.704zm4.813-3.32a3 3 0 0 1 1.293-1.339l1.264-.67-.462-1.48a3 3 0 0 1 0-1.79l.462-1.48-1.264-.67a3 3 0 0 1-1.293-1.34l-.619-1.272-1.226.418a3 3 0 0 1-1.936 0l-1.226-.418-.619 1.273a3 3 0 0 1-1.293 1.339l-1.264.67.462 1.48a3 3 0 0 1 0 1.79l-.462 1.48 1.264.67a3 3 0 0 1 1.293 1.34l.619 1.272 1.226-.418a3 3 0 0 1 1.936 0l1.226.418.619-1.273zM8 5a1 1 0 0 1 1 1v4a1 1 0 0 1-2 0V6a1 1 0 0 1 1-1z"></path>
    </symbol>

    <symbol id='icon-tv' viewBox="0 0 24 24" fill="none">
        <path d="M21.0254 8.40554C20.7987 8.20998 20.5218 8.09678 20.3141 8.02584C20.0833 7.94703 19.8184 7.88184 19.5383 7.82624C18.9764 7.71473 18.2727 7.62624 17.4908 7.55704C15.9221 7.41822 13.955 7.34998 12 7.34998C10.045 7.34997 8.0779 7.41821 6.50923 7.55704C5.7273 7.62623 5.02357 7.71473 4.46174 7.82624C4.18161 7.88184 3.91672 7.94703 3.68594 8.02583C3.4782 8.09677 3.20126 8.20998 2.97462 8.40553C2.76112 8.58976 2.63916 8.81815 2.56971 8.97159C2.49263 9.14189 2.43333 9.32752 2.38581 9.50895C2.29052 9.87283 2.21854 10.3144 2.16365 10.7872C2.05319 11.7386 2 12.9242 2 14.1032C2 15.283 2.05326 16.4858 2.16311 17.4726C2.21784 17.9643 2.28883 18.4229 2.38053 18.807C2.46043 19.1416 2.59126 19.5854 2.85131 19.906C3.08981 20.2 3.43086 20.3352 3.60561 20.3981C3.82965 20.4789 4.09015 20.5429 4.36115 20.596C4.90739 20.703 5.60964 20.7873 6.39637 20.853C7.97657 20.9851 9.99449 21.05 12 21.05C14.0055 21.05 16.0234 20.9851 17.6036 20.853C18.3904 20.7873 19.0926 20.703 19.6388 20.596C19.9098 20.5429 20.1703 20.4789 20.3944 20.3981C20.5691 20.3352 20.9102 20.2 21.1487 19.906C21.4087 19.5854 21.5396 19.1416 21.6195 18.807C21.7112 18.4229 21.7822 17.9643 21.8369 17.4726C21.9467 16.4858 22 15.283 22 14.1032C22 12.9242 21.9468 11.7386 21.8363 10.7872C21.7815 10.3144 21.7095 9.87284 21.6142 9.50896C21.5667 9.32752 21.5074 9.14189 21.4303 8.9716C21.3608 8.81815 21.2389 8.58976 21.0254 8.40554Z" strokeLinecap="round" strokeLinejoin="round"></path> 
        <line x1="11.4858" y1="6.44995" x2="8.39999" y2="3.36416" strokeLinecap="round" strokeLinejoin="round"></line> 
        <line x1="1" y1="-1" x2="5.36396" y2="-1" transform="matrix(0.707107 -0.707107 -0.707107 -0.707107 11.1 6.44995)" strokeLinecap="round" strokeLinejoin="round"></line>
    </symbol>

    <symbol id='icon-card' viewBox="0 0 24 24" fill="none"> 
        <path id="Vector" d="M3 11V15.8002C3 16.9203 3 17.4801 3.21799 17.9079C3.40973 18.2842 3.71547 18.5905 4.0918 18.7822C4.5192 19 5.07899 19 6.19691 19H17.8031C18.921 19 19.48 19 19.9074 18.7822C20.2837 18.5905 20.5905 18.2842 20.7822 17.9079C21 17.4805 21 16.9215 21 15.8036V11M3 11V9M3 11H21M3 9V8.2002C3 7.08009 3 6.51962 3.21799 6.0918C3.40973 5.71547 3.71547 5.40973 4.0918 5.21799C4.51962 5 5.08009 5 6.2002 5H17.8002C18.9203 5 19.4796 5 19.9074 5.21799C20.2837 5.40973 20.5905 5.71547 20.7822 6.0918C21 6.5192 21 7.07899 21 8.19691V9M3 9H21M7 15H11M21 11V9" strokeLinecap="round" strokeLinejoin="round"></path> 
    </symbol>

    <symbol id='icon-share' viewBox="0 0 24 24" fill="none">
        <path id="Vector" d="M9 13.5L15 16.5M15 7.5L9 10.5M18 21C16.3431 21 15 19.6569 15 18C15 16.3431 16.3431 15 18 15C19.6569 15 21 16.3431 21 18C21 19.6569 19.6569 21 18 21ZM6 15C4.34315 15 3 13.6569 3 12C3 10.3431 4.34315 9 6 9C7.65685 9 9 10.3431 9 12C9 13.6569 7.65685 15 6 15ZM18 9C16.3431 9 15 7.65685 15 6C15 4.34315 16.3431 3 18 3C19.6569 3 21 4.34315 21 6C21 7.65685 19.6569 9 18 9Z" strokeLinecap="round" strokeLinejoin="round"></path>
    </symbol>

</svg>

